/* XPM */
static char *_21559beee0d4b5cde13b61cded9d628[] = {
/* columns rows colors chars-per-pixel */
"16 16 78 1 ",
"  c #0C0621",
". c #030B3B",
"X c #673209",
"o c #72400C",
"O c #785817",
"+ c #131D57",
"@ c #1C224D",
"# c #272543",
"$ c #3E374B",
"% c #2A375C",
"& c #30385B",
"* c #232F62",
"= c #293771",
"- c #304071",
"; c #344275",
": c #364474",
"> c #3F4A79",
", c #3F487A",
"< c #4B405B",
"1 c #574E59",
"2 c #494760",
"3 c #444669",
"4 c #4B4F6B",
"5 c #474D7C",
"6 c #4F5279",
"7 c #5F6878",
"8 c #884403",
"9 c #954500",
"0 c #8D541B",
"q c #945714",
"w c #A04C00",
"e c #97601B",
"r c #936B1B",
"t c #966918",
"y c #C07F02",
"u c #BF8928",
"i c #B1962E",
"p c #DA9811",
"a c #D59E1A",
"s c #EB9B0D",
"d c #CDA337",
"f c #FFBE28",
"g c #E6B13C",
"h c #FFCC3A",
"j c #F0BF42",
"k c #FFDB41",
"l c #FFE057",
"z c #FFE857",
"x c #F8CE65",
"c c #1B2E80",
"v c #122D89",
"b c #2F3E83",
"n c #2C4383",
"m c #22418E",
"M c #27448D",
"N c #3B4B81",
"B c #274490",
"V c #1A47AD",
"C c #2448A8",
"Z c #264BAB",
"A c #2C53AC",
"S c #366AB8",
"D c #4F5986",
"F c #50598A",
"G c #566F9B",
"H c #5E6D9B",
"J c #57739B",
"K c #4C6AAB",
"L c #497ABD",
"P c #2A67C0",
"I c #3D70C6",
"U c #5C9DCD",
"Y c #4084D2",
"T c #4595E3",
"R c #59AAE0",
"E c #EED3A4",
"W c #FAF3A4",
"Q c None",
/* pixels */
"QQQQQQQQQQQQQQQQ",
"QQQQQQG:FQQQQQQQ",
"QQQQQQQJKQQQQQQQ",
"QQQQQQQ%@MB#QQQQ",
"QQQQQQZnQQQ; QQQ",
"QQQQQbAQwqeQ7.QQ",
"QQQQQPQsgEWyQZQQ",
"QQQQLRQflxziXQQQ",
"QQQQQIQpjhkO0QQQ",
"QQ>Q3+Qardu9QVQQ",
"QQ>N-&vQto8QScQQ",
"QQQ5QQ4=QQQTmQQQ",
"QQQQQQDH2*YUQQQQ",
"QQQQQQQQQ$<QQQQQ",
"QQQQQQQQQQ16QQQQ",
"QQQQQQQQQQQQQQQQ"
};
