/* XPM */
static char *_126bcdb22de4be3987caab70fa3b64f[] = {
/* columns rows colors chars-per-pixel */
"64 64 256 2 ",
"   c #15050D",
".  c #0E000E",
"X  c #271713",
"o  c #361E14",
"O  c #3B2516",
"+  c #160C28",
"@  c #1C1425",
"#  c #1D1A34",
"$  c #191838",
"%  c #24192C",
"&  c #291E2C",
"*  c #251B23",
"=  c #261D32",
"-  c #2D222E",
";  c #2C2335",
":  c #2C253B",
">  c #2D293D",
",  c #252139",
"<  c #312A3D",
"1  c #491F1C",
"2  c #4B2B1B",
"3  c #472817",
"4  c #56381B",
"5  c #6C3F13",
"6  c #62330C",
"7  c #5F3A22",
"8  c #673D23",
"9  c #5F401C",
"0  c #79450C",
"q  c #6A4319",
"w  c #73451B",
"e  c #744A1C",
"r  c #774818",
"t  c #76551E",
"y  c #6C4322",
"u  c #6E4922",
"i  c #744C22",
"p  c #7B4E23",
"a  c #7A4F2C",
"s  c #7D5224",
"d  c #795229",
"f  c #1D2347",
"g  c #1C2452",
"h  c #252544",
"j  c #2D2A42",
"k  c #2B2B4B",
"l  c #23274C",
"z  c #322D44",
"x  c #322C49",
"c  c #33314C",
"v  c #39384C",
"b  c #262C56",
"n  c #2C335B",
"m  c #2C3154",
"M  c #353553",
"N  c #3B3955",
"B  c #353659",
"V  c #363A5D",
"C  c #393A5B",
"Z  c #393855",
"A  c #2F334D",
"S  c #1B2A66",
"D  c #1F326A",
"F  c #293561",
"G  c #2A3A65",
"H  c #343B63",
"J  c #393E63",
"K  c #353D67",
"L  c #2D3C73",
"P  c #283978",
"I  c #313E74",
"U  c #313F79",
"Y  c #413F5D",
"T  c #3B4164",
"R  c #36416D",
"E  c #3B436C",
"W  c #37446A",
"Q  c #2D4175",
"!  c #2A427D",
"~  c #364373",
"^  c #3A4574",
"/  c #3B4B73",
"(  c #33447B",
")  c #3B477A",
"_  c #35497D",
"`  c #3E4A7B",
"'  c #3F5079",
"]  c #464155",
"[  c #474966",
"{  c #424C76",
"}  c #434C7C",
"|  c #45517D",
" . c #4B537B",
".. c #555977",
"X. c #844D18",
"o. c #83531E",
"O. c #8A5612",
"+. c #8F540D",
"@. c #9C641B",
"#. c #A76817",
"$. c #B16608",
"%. c #825525",
"&. c #845925",
"*. c #8C5C24",
"=. c #8B5D29",
"-. c #83562B",
";. c #925E29",
":. c #975E22",
">. c #9E6B27",
",. c #956429",
"<. c #986626",
"1. c #92702C",
"2. c #AA6D26",
"3. c #A97328",
"4. c #B37323",
"5. c #B37C2A",
"6. c #BA7A29",
"7. c #AC7834",
"8. c #B87E31",
"9. c #C27C1B",
"0. c #B98329",
"q. c #B68B2F",
"w. c #CB8D1B",
"e. c #D19212",
"r. c #C5892B",
"t. c #CB962A",
"y. c #D49A28",
"u. c #C88F33",
"i. c #CB9433",
"p. c #C1933A",
"a. c #D19C35",
"s. c #D29431",
"d. c #D18F38",
"f. c #DBA534",
"g. c #DBA838",
"h. c #DCA22E",
"j. c #E3A824",
"k. c #F2BC2A",
"l. c #E6AD37",
"z. c #E5B33C",
"x. c #EBBA3C",
"c. c #ECB538",
"v. c #F5BA3A",
"b. c #F0AD38",
"n. c #FED32D",
"m. c #F2C33F",
"M. c #FEC438",
"N. c #FFD832",
"B. c #BB9254",
"V. c #D69F4F",
"C. c #D5A956",
"Z. c #EEBE43",
"A. c #EEBF4C",
"S. c #EAB741",
"D. c #F0BF43",
"F. c #ECBF54",
"G. c #D0A96B",
"H. c #EFC04C",
"J. c #FECE43",
"K. c #F1C149",
"L. c #FFD444",
"P. c #FFD84E",
"I. c #EFC354",
"U. c #F1C454",
"Y. c #F1C55B",
"T. c #F6CB5B",
"R. c #FBCE55",
"E. c #FDD35D",
"W. c #FFE05A",
"Q. c #F3C867",
"!. c #FBD875",
"~. c #E8C06A",
"^. c #FFE864",
"/. c #273D84",
"(. c #303D82",
"). c #2C4484",
"_. c #2C4A8D",
"`. c #284589",
"'. c #364A84",
"]. c #3C4D82",
"[. c #344A8C",
"{. c #3A4C8C",
"}. c #344685",
"|. c #3D5285",
" X c #3C538E",
".X c #3C5688",
"XX c #2F4C92",
"oX c #344D92",
"OX c #3A4E91",
"+X c #3C5392",
"@X c #385B92",
"#X c #3C5599",
"$X c #3B5999",
"%X c #355497",
"&X c #2F5A98",
"*X c #3E609B",
"=X c #385DA1",
"-X c #396DAD",
";X c #464F81",
":X c #455384",
">X c #43558B",
",X c #485988",
"<X c #555C85",
"1X c #415593",
"2X c #435996",
"3X c #425B9A",
"4X c #495B96",
"5X c #525E93",
"6X c #45639D",
"7X c #4B6599",
"8X c #55649C",
"9X c #566898",
"0X c #636C9A",
"qX c #68739D",
"wX c #415CA2",
"eX c #4465A3",
"rX c #4B6EA4",
"tX c #456BAC",
"yX c #5B6CA5",
"uX c #5869A3",
"iX c #4B74AC",
"pX c #4877A9",
"aX c #5776AB",
"sX c #4D7AB3",
"dX c #4776B3",
"fX c #557DB3",
"gX c #486FB0",
"hX c #6578AE",
"jX c #4A85BC",
"kX c #5283B6",
"lX c #5385BC",
"zX c #558DBE",
"xX c #6482B3",
"cX c #4E86C2",
"vX c #578BC2",
"bX c #5C9BCB",
"nX c #5794C9",
"mX c #5999D3",
"MX c #4F92C5",
"NX c #6897C7",
"BX c #5BA3D4",
"VX c #5EB1DA",
"CX c #61AAD5",
"ZX c #62A4D1",
"AX c #65B2DB",
"SX c #6AABCF",
"DX c #5FBAE7",
"FX c #6BBDEC",
"GX c #F8D588",
"HX c #FFEE9B",
"JX c #F9E3AB",
"KX c #FDEAB6",
"LX c #FFF9CD",
"PX c #FFFFF8",
"IX c #FBFCED",
"UX c None",
/* pixels */
"UXUXUXUXUXUXUXUXUXUXUXUXUXUXUXUXUXUXUXUXUXUXUXUXUXUXUXUXUXUXUXUXUXUXUXUXUXUXUXUXUXUXUXUXUXUXUXUXUXUXUXUXUXUXUXUXUXUXUXUXUXUXUXUX",
"UXUXUXUXUXUXUXUXUXUXUXUXUXUXUXUXUXUXUXUXUXUXUXUXUXUXUXUXUXUXUXUX4XUXUXUXUXUXUXUXUXUXUXUXUXUXUXUXUXUXUXUXUXUXUXUXUXUXUXUXUXUXUXUX",
"UXUXUXUXUXUXUXUXUXUXUXUXUXUXUXUXUXUXUXUXUXUXUXUXUXUXUXUXUXUXUXh + UXUXUXUXUXUXUXUXUXUXUXUXUXUXUXUXUXUXUXUXUXUXUXUXUXUXUXUXUXUXUX",
"UXUXUXUXUXUXUXUXUXUXUXUXUXUXUXUXUXUXUXUXUXUXUXUXUXUX7X_.aXUXUXH . 5XUXUXUXUXUXUXUXUXUXUXUXUXUXUXUXUXUXUXUXUXUXUXUXUXUXUXUXUXUXUX",
"UXUXUXUXUXUXUXUXUXUXUXUXUXUXUXUXUXUXUXUXUXUXUXUXUXUX@XS rXUXUX8X@ J UXUXUXUXUXUXUXUXUXUXUXUXUXUXUXUXUXUXUXUXUXUXUXUXUXUXUXUXUXUX",
"UXUXUXUXUXUXUXUXUXUXUXUXUXUXUXUXUXUXUXUXUXUXUXUXUXUXxXg .XUXUXUXl x UXUXUXUXUXUXUXUXUXUXUXUXUXUXUXUXUXUXUXUXUXUXUXUXUXUXUXUXUXUX",
"UXUXUXUXUXUXUXUXUXUXUXUXUXUXUXUXUXUXUXUXUXUXUXUXUXUXUXb G UXUXUX_ l 9XUXUXUXUXUXUXUXUXUXUXUXUXUXUXUXUXUXUXUXUXUXUXUXUXUXUXUXUXUX",
"UXUXUXUXUXUXUXUXUXUXUXUXUXUXUXUXUXUXUXUXUXUXUXUXUXUXUX/ $ fXUXUX3XS ,XUXUXUXUXUXUXUXUXUXUXUXUXUXUXUXUXUXUXUXUXUXUXUXUXUXUXUXUXUX",
"UXUXUXUXUXUXUXUXUXUXUXUXUXUXUXUXUXUXUXUXUXUXUXUXUXUXUX9X+ 7XUXUXyX).}.UXUXUXUXUXUXUXUXUXUXUXUXUXUXUXUXUXUXUXUXUXUXUXUXUXUXUXUXUX",
"UXUXUXUXUXUXUXUXUXUXUXUXUXUXUXUXUXUXUXUXUXUXUXUXUXUXUXNX@ T UXUXUX! ).UXUXUXUXUXUXUXUXUXUXUXUXUXUXUXUXUXUXUXUXUXUXUXUXUXUXUXUXUX",
"UXUXUXUXUXUXUXUXUXUXUXUXUXUXUXUXUXUXUXUXUXUXUXUXUXUXUXUXA # UXUXUX].D uXUXUXUXUXUXUXUXUXUXUXUXUXUXUXUXUXUXUXUXUXUXUXUXUXUXUXUXUX",
"UXUXUXUXUXUXUXUXUXUXUXUXUXUXUXUXUXUXUXUXUXUXUXUXUXUXUXUX<X. aXUXUXyXb '.UXhXyX8XUXUXUXUXUXUXUXUXUXUXUXUXUXUXUXUXUXUXUXUXUXUXUXUX",
"UXUXUXUXUXUXUXUXUXUXUXUXUXUXUXUXUXUXUXUXUXUXUXUXUXUXUXUXNX  | UX7X/ B K ( ( _.I H B m H ) 5XUXUXUXUXUXUXUXUXUXUXUXUXUXUXUXUXUXUX",
"UXUXUXUXUXUXUXUXUXUXUXUXUXUXUXUXUXUXUXUXUXUXUXUXUXUXUXUXUXk & k % ; M V K ~ ].%X}.V z ; & = k ) UXUXUXUXUXUXUXUXUXUXUXUXUXUXUXUX",
"UXUXUXUXUXUXUXUXUXUXUXUXUXUXUXUXUXUXUXUXUXUXUXUXUXUXUXSX XM : & < z z M Z J R ].$XOX~ B x : & % h _ UXUXUXUXUXUXUXUXUXUXUXUXUXUX",
"UXUXUXUXUXUXUXUXUXUXUXUXUXUXUXUXUXUXUXUXUXUXUXUXUXUXdXP n K C M c < ; & = k B n G {.%X/ V c > < - @ m UXUXUXUXUXUXUXUXUXUXUXUXUX",
"UXUXUXUXUXUXUXUXUXUXUXUXUXUXUXUXUXUXUXUXUXUXUXUXUX=XP [.+X) K B : = , n / ` _ ].].( ).[._ J c > z < * f #XUXUXUXUXUXUXUXUXUXUXUX",
"UXUXUXUXUXUXUXUXUXUXUXUXUXUXUXUXUXUXUXUXUXUXUXUX`.(.[.OX%XOXL n / dXUXUXUXUXUXUXUXUXUX#XOX! K B z > < * $ 7XUXUXUXUXUXUXUXUXUXUX",
"UXUXUXUXUXUXUXUXUXUXUXUXUXUXUXUXUXUXUXUXUXUXUX`.[.OX{.OX[./.%XZXUXUXUXUXUXUXUXUXUXUXUXUXUXwX).T C z > z & $ UXUXUXUXUXUXUXUXUXUX",
"UXUXUXUXUXUXUXUXUXUXUXUXUXUXUXUXUXUXUXUXUXUXP %X1XOXOX}.P fXUXUXUXUXUX*.=.%.%.%.*.&.UXUXUXUXUXoXL Z c > z * l UXUXUXUXUXUXUXUXUX",
"UXUXUXUXUXUXUXUXUXUXUXUXUXUXUXUXUXUXUXUXUXE XX2XOX+X{./.gXUXUXUXUXp e q w r e r w r i o.UXUXUXUX%XQ J c j < @ |.UXUXUXUXUXUXUXUX",
"UXUXUXUXUXUXUXUXUXUXUXUXUXUXUXUXUXUXUXUXUX}.wX1X1X+X).gXUXUXUX%.0 p %.%.s s s %.d d s r q ;.UXUXUXwXP W M x - , UXUXUXUXUXUXUXUX",
"UXUXUXUXUXUXUXUXUXUXUXUXUXUXUXUXUXUXUXUXC =X3X+X+XOX%XUXUXUXe o.,.>.<.,.;.,.;.X.0 q q i p q i UXUXUX/.}.E B z @ ` UXUXUXUXUXUXUX",
"UXUXUXUXUXUXUXUXUXUXUXUXUXUXUXUXUXUXUXUX}.eX>X#X3X).UXUXUXq @.8.7.2.2.3.5.2.+.7.B.V.p.<.r %.p 5 UXUXUX`.{.~ C ; f UXUXUXUXUXUXUX",
"UXUXUXUXUXUXUXUXUXUXUXUXUXUXUXUXUXUXUX[ -X6X1X3XoX+XUXUXa @.d.4.4.6.6.4.6.$.G.IXLXJX!.E.p.r ;.X.=.UXUX[.).$X( Z # yXUXUXUXUXUXUX",
"UXUXUXUXUXUXUXUXUXUXUXUXUXUXUXUXUXUXUX| cXrXeXeXL UXUXUXO.s.4.i.S.U.T.C.$.G.PXPXKXGXQ.T.^.i.w &.:.UXUXUXL P _.( l L UXUXUXUXUXUX",
"UXUXUXUXUXUXUXUXUXUXUXUXUXUXUXUXUXUXUXpXnXsXiX*X{ UXUX>.9.6.t.J.R.T.T.!.~.JXLXKXJX!.Y.I.R.P.<.7 r t.UXUXUX8XyXyXuX8XUXUXUXUXUXUX",
"UXUXUXUXUXUXUXUXUXUXUXUXUXUXUXUXUXUXUXMXbXkXlX@XUXUXUX9.r.r.K.m.D.A.U.Y.!.GXGXGX!.Q.Y.I.H.P.t.4 q +.UXUXUXUXUXUXUXUXUXUXUXUXUXUX",
"UXUXUXUXUXUXUXUXUXUXUXUXUXUXUXUXUXUX8XVXCXvXnX@XUXUXW.w.6.f.m.x.D.K.I.U.Y.Y.Q.Q.Y.Y.Y.I.A.L.z.2 y 6 B.UXUXUXUXUXUXUXUXUXUXUXUXUX",
"UXUXUXUXUXUXUXUXUXUXUXUXUXUXUXUXUXUXeXBXAXZXBX,XUXUXj.r.r.l.Z.x.x.K.H.I.Y.Y.I.Y.Y.I.I.H.Z.J.c.3 9 w &.UXUXUXUXUXUXUXUXUXUXUXUXUX",
"UXUXUXUXUXUXUXUXUXUXUXUXUXUXUXUXUXUX7XMXbXAXDX/ UXUX6.r.r.z.m.x.x.x.K.H.H.I.I.I.I.H.K.K.x.J.a.X y 0 -.UXUXUXUXUXUXUXUXUXUXUXUXUX",
"UXUXUXUXUXUXUXUXUXUXUXUXUXUXUXUXUXUX.XfXlXbXFXG UXUXi.t.r.g.Z.x.x.x.x.D.Z.A.H.A.K.K.m.x.x.L.q.  p r d UXUXUXUXUXUXUXUXUXUXUXUXUX",
"UXUXUXUXUXUXUXUXUXUXUXUXUXUXUXUXUXUX|.tXdXlXBXG UXUXl.w.t.f.S.x.x.x.x.x.x.Z.Z.Z.Z.x.x.x.x.J.4 X =.5 d UXUXUXUXUXUXUXUXUXUXUXUXUX",
"UXUXUXUXUXUXUXUXUXUXUXUXUXUXUXUXUXUX` $XeXpXcX,XUXUXk.y.t.t.l.z.x.x.z.x.x.x.x.x.x.x.x.z.J.a.X u &.0 ,.UXUXUXUXUXUXUXUXUXUXUXUXUX",
"UXUXUXUXUXUXUXUXUXUXUXUXUXUXUXUXUXUX| '.4X6XsX7XUXUXc.y.l.2.t.v.g.S.x.x.x.x.x.c.x.x.x.S.L.t O *.p r q.UXUXUXUXUXUXUXUXUXUXUXUXUX",
"UXUXUXUXUXUXUXUXUXUXUXUXUXUXUXUXUXUX;XW :X+XtX*XUXUXUXe.c.0.4 z.M.g.S.x.x.x.x.x.x.S.z.J.t.O s s %.O.G.UXUXUXUXUXUXUXUXUXUXUXUXUX",
"UXUXUXUXUXUXUXUXUXUXUXUXUXUXUXUXUXUX .n W | $X&X5XUXUXw.j.k.u 3 f.M.f.g.z.z.z.z.z.z.z.k.u y *.%.*.2.UXUXUXUXUXUXUXUXUXUXUXUXUXUX",
"UXUXUXUXUXUXUXUXUXUXUXUXUXUXUXUXUXUXUXk M E '  XoXUXUXV.e.n.h.1 O 1.v.m.a.a.f.f.f.a.c.<.4 ,.p ,.@.r.UXUXUXUXUXUXUX,XUXUXUXUXUXUX",
"UXUXUXUXUXUXUXUXUXUXUXUXUXUXUXUXUXUXUXE , V T ' _.UXUXUX#.k.N.3.2 o 4 q.v.l.a.i.u.l.t.4 ;.s =.@.#.UXUXUX_.[.oX+XL ].UXUXUXUXUXUX",
"UXUXUXUXUXUXUX} ;X| ;X| | :X:X,X:XE T J > z M Y ^ ].UXUXUX0 n.N.>.8 4 X 4 0.h.b.b.y.7 ;.;.&.2.#.UXUXUX#X(.{.[.OX/.uXUXUXUXUXUXUX",
"UXUXUXUXUXUX} ( ) Q L I L I ).+X3X{.G c z > < c C F .XUXUXa O.n.N.<.u i 3 X O t t.t p ,.%.>.2.9.UXUXsX(.OX[.[.[.`.UXUXUXUXUXUXUX",
"UXUXUXUXUXUXUX{ | ;X| | | | | | ` :X` ^ ^ ~ R ) |.:X~ [.UXUXUXr t.N.i.e i -.9 X O =.>.s @.4.UXUXUXUXXX{.+XOXOXP 2XUXUXUXUXUXUXUX",
"UXUXUXUXUXUXUXUXUXUXUXUXUXUXUXUXUXUXUXUXUXUXUXUXUXUX5XG >XUXUXUXp <.j.h.>.i &.;.s o.s :.4.UXUXUXUX$X}.+X{.+XOX`.UXUXUXUXUXUXUXUX",
"UXUXUXUXUXUXUXUXUXUXUXUXUXUXUXUXUXUXUXUXUXUXUXUXUXUX0Xk H ;XUXUXUXUXp :.0.<.e e s *.#.UXUXUXUXAX#X}.+X1XOX1X).3XUXUXUXUXUXUXUXUX",
"UXUXUXUXUXUXUXUXUXUXUXUXUXUXUXUXUXUXUXUXUXUXUXUXUX,XJ > B K [ UXUXUXUXUXUXUXUXUXUXUXUXUXUXUXbX%X}.3X1X+X.X{._.UXUXUXUXUXUXUXUXUX",
"UXUXUXUXUXUXUXUXUXUXUX} ` ` ) I I I I I (  X$X X/ k - : , j m F V Y UXUXUXUXUXUXUXUXUXUXvXpX@X2X3X1X+X3X{._.UXUXUXUXUXUXUXUXUXUX",
"UXUXUXUXUXUXUXUXUXUXUX} ;X| | } { } ` ) { ].].1X|.E J V V J W K K B A c M ..qX<X|.dXzXzXlXdXiXrX6X$X3X{.OXfXUXUXUXUXUXUXUXUXUXUX",
"UXUXUXUXUXUXUXUXUXUXUXUXUXUXUXUXUXUXUXUXUXUXUXUXUXUXUXUXUXUXUXUXUXUXUXUXUXUXk dXmXCXDXCXnXvXkXsXrX6X[.$XvXUXUXUXUXUXUXUXUXUXUXUX",
"UXUXUXUXUXUXUXUXUXUXUXUXUXUXUXUXUXUXUXUXUXUXUXUXUXUXUXUXUXUXUXUXUXUXUXUXUXUXUX,XcXvXbXCXCXbXvXkXsX6XiXUXUXUXUXUXUXUXUXUXUXUXUXUX",
"UXUXUXUXUXUXUXUXUXUXUXUXUXUXUXUXUXUXUXUXUXUXUXUXUXUXUXUXUXUXUXUXUXUXUXUXUXUXc +XgXpXkXnXCXCXZXnXjXbXUXUXUXUXUXUXUXUXUXUXUXUXUXUX",
"UXUXUXUXUXUXUXUXUXUXUXUXUXUXUXUXUXUXUXUXUX .^ } ) ) ` ;X.X>X;X/ T V Z v N N ^ 3X3XeXsXlXnXCXBXkXUXUXUXUXUXUXUXUXUXUXUXUXUXUXUXUX",
"UXUXUXUXUXUXUXUXUXUXUXUXUXUXUXUXUXUXUXUXUX} P U I U I ).{.#XOXK m j h , h T F E 1X$X@X6XeXnXlXUXUXUXUXUXUXUXUXUXUXUXUXUXUXUXUXUX",
"UXUXUXUXUXUXUXUXUXUXUXUXUXUXUXUXUXUXUXUXUXUX{ { { ) E E E ^ ;X>X>X,X/ ..[ j ] N ^ ' J UXUXdXjXUXUXUXUXUXUXUXUXUXUXUXUXUXUXUXUXUX",
"UXUXUXUXUXUXUXUXUXUXUXUXUXUXUXUXUXUXUXUXUXUXUXUXUXUXUXUXUXUXUXUXUXUXUXUXUXUXUXUXk ^ UXUXUX6X-XxXUXUXUXUXUXUXUXUXUXUXUXUXUXUXUXUX",
"UXUXUXUXUXUXUXUXUXUXUXUXUXUXUXUXUXUXUXUXUXUXUXUXUXUXUXUXUXUXUXUXUXUXUXUXUXUXUXUXc b [ UXUX5X=XpXUXUXUXUXUXUXUXUXUXUXUXUXUXUXUXUX",
"UXUXUXUXUXUXUXUXUXUXUXUXUXUXUXUXUXUXUXUXUXUXUXUXUXUXUXUXUXUXUXUXUXUXUXUXUXUXUXUX] $ T UXUX<XXXeXUXUXUXUXUXUXUXUXUXUXUXUXUXUXUXUX",
"UXUXUXUXUXUXUXUXUXUXUXUXUXUXUXUXUXUXUXUXUXUXUXUXUXUXUXUXUXUXUXUXUXUXUXUXUXUXUXUXUX# h UXUXUX' XXhXUXUXUXUXUXUXUXUXUXUXUXUXUXUXUX",
"UXUXUXUXUXUXUXUXUXUXUXUXUXUXUXUXUXUXUXUXUXUXUXUXUXUXUXUXUXUXUXUXUXUXUXUXUXUXUXUXUX: # ] UXUX{ P uXUXUXUXUXUXUXUXUXUXUXUXUXUXUXUX",
"UXUXUXUXUXUXUXUXUXUXUXUXUXUXUXUXUXUXUXUXUXUXUXUXUXUXUXUXUXUXUXUXUXUXUXUXUXUXUXUXUXN + v UXUX[ F >XUXUXUXUXUXUXUXUXUXUXUXUXUXUXUX",
"UXUXUXUXUXUXUXUXUXUXUXUXUXUXUXUXUXUXUXUXUXUXUXUXUXUXUXUXUXUXUXUXUXUXUXUXUXUXUXUXUX..l j UXUXUXl n UXUXUXUXUXUXUXUXUXUXUXUXUXUXUX",
"UXUXUXUXUXUXUXUXUXUXUXUXUXUXUXUXUXUXUXUXUXUXUXUXUXUXUXUXUXUXUXUXUXUXUXUXUXUXUXUXUXUXK n UXUXUXl g 0XUXUXUXUXUXUXUXUXUXUXUXUXUXUX",
"UXUXUXUXUXUXUXUXUXUXUXUXUXUXUXUXUXUXUXUXUXUXUXUXUXUXUXUXUXUXUXUXUXUXUXUXUXUXUXUXUXUX].! v UXUXUXUXUXUXUXUXUXUXUXUXUXUXUXUXUXUXUX",
"UXUXUXUXUXUXUXUXUXUXUXUXUXUXUXUXUXUXUXUXUXUXUXUXUXUXUXUXUXUXUXUXUXUXUXUXUXUXUXUXUXUX .c UXUXUXUXUXUXUXUXUXUXUXUXUXUXUXUXUXUXUXUX",
"UXUXUXUXUXUXUXUXUXUXUXUXUXUXUXUXUXUXUXUXUXUXUXUXUXUXUXUXUXUXUXUXUXUXUXUXUXUXUXUXUXUXUXUXUXUXUXUXUXUXUXUXUXUXUXUXUXUXUXUXUXUXUXUX"
};
