/* XPM */
static char *f8eb80d5bf1846c9f8b7719a69a97a88[] = {
/* columns rows colors chars-per-pixel */
"32 32 228 2 ",
"   c #1A0E18",
".  c #21060C",
"X  c #3C1505",
"o  c #3A1109",
"O  c #23141C",
"+  c #2A181C",
"@  c #3A1F16",
"#  c #19162F",
"$  c #201624",
"%  c #2A1220",
"&  c #301F24",
"*  c #201B34",
"=  c #2D202B",
"-  c #332325",
";  c #242235",
":  c #2D2433",
">  c #2B283F",
",  c #5A300E",
"<  c #492719",
"1  c #452C1A",
"2  c #602509",
"3  c #67370A",
"4  c #733F0B",
"5  c #663512",
"6  c #633F1E",
"7  c #4F3422",
"8  c #5F3E20",
"9  c #794000",
"0  c #79450B",
"q  c #62451D",
"w  c #734516",
"e  c #7A4714",
"r  c #774A1E",
"t  c #7B4B1C",
"y  c #7D581E",
"u  c #6E492C",
"i  c #774E24",
"p  c #7C5422",
"a  c #7C5D24",
"s  c #282642",
"d  c #2D2B43",
"f  c #292D4D",
"g  c #312D44",
"h  c #363043",
"j  c #35344C",
"k  c #242C5B",
"l  c #25335E",
"z  c #353453",
"x  c #3C3D52",
"c  c #31375C",
"v  c #343A5F",
"b  c #3D3D5C",
"n  c #243165",
"m  c #24346B",
"M  c #2E3B6C",
"N  c #333D62",
"B  c #2C3C71",
"V  c #29377F",
"C  c #2E3B7C",
"Z  c #323F72",
"A  c #3E405F",
"S  c #3C4060",
"D  c #36416F",
"F  c #3B446A",
"G  c #354376",
"H  c #394571",
"J  c #394976",
"K  c #314179",
"L  c #3B467B",
"P  c #3D4A7B",
"I  c #3F507C",
"U  c #414463",
"Y  c #474962",
"T  c #41466B",
"R  c #43486D",
"E  c #424E74",
"W  c #464D7E",
"Q  c #445579",
"!  c #49517E",
"~  c #48627B",
"^  c #864102",
"/  c #88560F",
"(  c #9B5B01",
")  c #915009",
"_  c #8B5516",
"`  c #975A12",
"'  c #955E1E",
"]  c #B35A00",
"[  c #B66102",
"{  c #A66711",
"}  c #BB6E15",
"|  c #AD711E",
" . c #B57715",
".. c #955C22",
"X. c #8F652C",
"o. c #9C6326",
"O. c #917329",
"+. c #97792B",
"@. c #A66820",
"#. c #A67D27",
"$. c #A3762B",
"%. c #BA7929",
"&. c #C77B0C",
"*. c #9A764B",
"=. c #BE911C",
"-. c #BB9037",
";. c #C78919",
":. c #C78424",
">. c #C8842A",
",. c #CB8E2D",
"<. c #CC952C",
"1. c #D99B21",
"2. c #D1932F",
"3. c #DBA22D",
"4. c #D3A131",
"5. c #DDA133",
"6. c #F1B524",
"7. c #E6AA33",
"8. c #E9AF32",
"9. c #E0AA3B",
"0. c #E5B63B",
"q. c #ECBC3C",
"w. c #F0B83F",
"e. c #FFC218",
"r. c #F3CC1B",
"t. c #FFC725",
"y. c #E0C03E",
"u. c #FECC3F",
"i. c #FFDD32",
"p. c #AE8243",
"a. c #A68149",
"s. c #E0AA45",
"d. c #EEBD41",
"f. c #EEBF4B",
"g. c #F1BB40",
"h. c #EDBC52",
"j. c #F4C242",
"k. c #FCC041",
"l. c #F9CD40",
"z. c #F0C04C",
"x. c #FFD444",
"c. c #FFDD46",
"v. c #F1C356",
"b. c #F0C358",
"n. c #F7CC58",
"m. c #FFDB57",
"M. c #FAD05C",
"N. c #FFE04B",
"B. c #FFE857",
"V. c #FFE15F",
"C. c #F6CD61",
"Z. c #15388D",
"A. c #092F9E",
"S. c #233A83",
"D. c #313E85",
"F. c #253D91",
"G. c #2A4285",
"H. c #2D4E87",
"J. c #28448A",
"K. c #354584",
"L. c #3A4684",
"P. c #344A82",
"I. c #394C85",
"U. c #344A8C",
"Y. c #3A4E8C",
"T. c #3E5186",
"R. c #3C518B",
"E. c #2F4B93",
"W. c #22499B",
"Q. c #2A4C9C",
"!. c #304690",
"~. c #375192",
"^. c #3E5392",
"/. c #3D5897",
"(. c #33509B",
"). c #3D5C9A",
"_. c #274DA1",
"`. c #2948A5",
"'. c #244EAB",
"]. c #2C4FAB",
"[. c #2951A3",
"{. c #2D53AB",
"}. c #2C5BAC",
"|. c #395DA1",
" X c #335CBA",
".X c #3369B7",
"XX c #336ABA",
"oX c #4B4D81",
"OX c #445383",
"+X c #4B5383",
"@X c #43548C",
"#X c #525684",
"$X c #575C89",
"%X c #455690",
"&X c #4A5E93",
"*X c #40579A",
"=X c #445D9B",
"-X c #4D638F",
";X c #41609C",
":X c #4B669E",
">X c #52629A",
",X c #4A6CA3",
"<X c #436EAD",
"1X c #4671A8",
"2X c #4A76A8",
"3X c #5479A2",
"4X c #4C7EB6",
"5X c #4D84BB",
"6X c #568EB3",
"7X c #5481BA",
"8X c #5B8DBD",
"9X c #4A80C5",
"0X c #538DCE",
"qX c #5493C7",
"wX c #5B93C4",
"eX c #478AD1",
"rX c #579DD3",
"tX c #59AADF",
"yX c #62AED8",
"uX c #67B6DF",
"iX c #60B8EE",
"pX c #67C5F0",
"aX c #F9D384",
"sX c #F7DD91",
"dX c #FFF4CD",
"fX c #FFFFD1",
"gX c #F0ECE4",
"hX c None",
/* pixels */
"hXhXhXhXhXhXhXhXhXhXhXhXhXhXhXhXhXhXhXhXhXhXhXhXhXhXhXhXhXhXhXhX",
"hXhXhXhXhXhXhXhXhXhXhXhXhX:XhXA f hXhXhXhXhXhXhXhXhXhXhXhXhXhXhX",
"hXhXhXhXhXhXhXhXhXhXhXhXhXP.hXhXs hXhXhXhXhXhXhXhXhXhXhXhXhXhXhX",
"hXhXhXhXhXhXhXhXhXhXhXhXhXQ I hXn hXhXhXhXhXhXhXhXhXhXhXhXhXhXhX",
"hXhXhXhXhXhXhXhXhXhXhXhXhXhXN hXR.%XhXhXhXhXhXhXhXhXhXhXhXhXhXhX",
"hXhXhXhXhXhXhXhXhXhXhXhXhXhXd hXhXm hXhXhXhXhXhXhXhXhXhXhXhXhXhX",
"hXhXhXhXhXhXhXhXhXhXhXhXhXhX~ f E z G ~.H g z hXhXhXhXhXhXhXhXhX",
"hXhXhXhXhXhXhXhXhXhXhXhXhX5XJ O . * k J._.M = O d hXhXhXhXhXhXhX",
"hXhXhXhXhXhXhXhXhXhXhXhX=XV C B H.-XhXhXhX XQ.g + $ K hXhXhXhXhX",
"hXhXhXhXhXhXhXhXhXhXhXU.!.D.{.hXhXhXhXhXhXhXhX].n -   hXhXhXhXhX",
"hXhXhXhXhXhXhXhXhXhXU (.^.`.hXhX^ 0 i w 3 9 hXhX;Xm & s hXhXhXhX",
"hXhXhXhXhXhXhXhXhXhXY.=X~.hXhX) ..o.` ..a.X.5 ( hX].Z $ F hXhXhX",
"hXhXhXhXhXhXhXhXhXhX<X/.`.hX{ >.s.2.%.gXfXV.-.2 hXhXA.l c hXhXhX",
"hXhXhXhXhXhXhXhXhX3XrXQ.hXhX} y.m.M.sXdXaXn.B.t / hXhXhXhXhXhXhX",
"hXhXhXhXhXhXhXhXhXwXpX}.hX6.,.l.d.b.C.v.b.h.N.+.o hXhXhXhXhXhXhX",
"hXhXhXhXhXhXhXhXhX,XiX6XhX:.3.j.q.d.f.z.z.q.c.a X *.hXhXhXhXhXhX",
"hXhXhXhXhXhXhXhXhXR.9X2XhX8.;.j.q.q.q.y.0.l.0.1 , p.hXhXhXhXhXhX",
"hXhXhXhXhXhXhXhXhXH ^.'.hXi. .$.x.w.q.q.w.c.O.1 _ hXhXhXhXhXhXhX",
"hXhXhXhXhXhXhXhXhXU v Q.hXhXe.8 _ l.w.8.g.4.6 t &.hXhXhXhXhXhXhX",
"hXhXhX! W W W %X@Xb : x Z.hX1.r.7 1 #.5.7.p u [ hXhXF.G.I.hXhXhX",
"hXhX$X+XG L J T.R.N j z H hXhX=.t.i @ q a t ] hXhXW.L.S.>XhXhXhX",
"hXhXhXhXhXhXhXhXhXhXhXhXhXE J.hXhX<.| 4 e @.hXhX.XL.~.U.hXhXhXhX",
"hXhXhXhXhXhXL L G G K.Y.D : ; M hXhXhXhXhXhXhXXXL ^.G.hXhXhXhXhX",
"hXhXhXhXhXhX+X#X+XoXOX&XW hXhX! R hXhX=XeXtX5X,X*X~.1XhXhXhXhXhX",
"hXhXhXhXhXhXhXhXhXhXhXhXhXhXhXhXhXhXhXJ 0XyXuXqX4XhXhXhXhXhXhXhX",
"hXhXhXhXhXhXhXhXhXhXhXG L P %XOXS j j Z *X;XqX8XhXhXhXhXhXhXhXhX",
"hXhXhXhXhXhXhXhXhXhXhXhXhXhXhXhXhXhXhXj F hX&X7XhXhXhXhXhXhXhXhX",
"hXhXhXhXhXhXhXhXhXhXhXhXhXhXhXhXhXhXhXhXd hXhX|.hXhXhXhXhXhXhXhX",
"hXhXhXhXhXhXhXhXhXhXhXhXhXhXhXhXhXhXhXhXh g hXI.hXhXhXhXhXhXhXhX",
"hXhXhXhXhXhXhXhXhXhXhXhXhXhXhXhXhXhXhXhXhX# hXR Z hXhXhXhXhXhXhX",
"hXhXhXhXhXhXhXhXhXhXhXhXhXhXhXhXhXhXhXhXhXn hXhXF hXhXhXhXhXhXhX",
"hXhXhXhXhXhXhXhXhXhXhXhXhXhXhXhXhXhXhXhXhXY hXhXhXhXhXhXhXhXhXhX"
};
